<svg xmlns="http://www.w3.org/2000/svg" width="800" height="450" viewBox="0 0 800 450">
  <rect fill="#070B10" width="800" height="450"/>
  <rect fill="#0C1218" x="24" y="24" width="752" height="402" rx="12" stroke="rgba(0,255,255,0.12)" stroke-width="1"/>
  <!-- grid lines -->
  <g stroke="rgba(255,255,255,0.04)" stroke-width="1">
    <line x1="50" y1="100" x2="750" y2="100"/>
    <line x1="50" y1="180" x2="750" y2="180"/>
    <line x1="50" y1="260" x2="750" y2="260"/>
    <line x1="50" y1="340" x2="750" y2="340"/>
  </g>
  <rect x="60" y="280" width="14" height="37" rx="2" fill="#00FFFF" opacity="0.55"/><line x1="67" y1="268" x2="67" y2="329" stroke="#00FFFF" stroke-width="1.5" opacity="0.4"/><rect x="84" y="199" width="14" height="88" rx="2" fill="#00FFFF" opacity="0.55"/><line x1="91" y1="187" x2="91" y2="299" stroke="#00FFFF" stroke-width="1.5" opacity="0.4"/><rect x="108" y="258" width="14" height="52" rx="2" fill="#00FFFF" opacity="0.55"/><line x1="115" y1="246" x2="115" y2="322" stroke="#00FFFF" stroke-width="1.5" opacity="0.4"/><rect x="132" y="274" width="14" height="55" rx="2" fill="#00FFFF" opacity="0.55"/><line x1="139" y1="262" x2="139" y2="341" stroke="#00FFFF" stroke-width="1.5" opacity="0.4"/><rect x="156" y="226" width="14" height="89" rx="2" fill="#2A3544" opacity="0.9"/><line x1="163" y1="214" x2="163" y2="327" stroke="#2A3544" stroke-width="1.5" opacity="0.4"/><rect x="180" y="277" width="14" height="59" rx="2" fill="#2A3544" opacity="0.9"/><line x1="187" y1="265" x2="187" y2="348" stroke="#2A3544" stroke-width="1.5" opacity="0.4"/><rect x="204" y="265" width="14" height="22" rx="2" fill="#00FFFF" opacity="0.55"/><line x1="211" y1="253" x2="211" y2="299" stroke="#00FFFF" stroke-width="1.5" opacity="0.4"/><rect x="228" y="253" width="14" height="68" rx="2" fill="#00FFFF" opacity="0.55"/><line x1="235" y1="241" x2="235" y2="333" stroke="#00FFFF" stroke-width="1.5" opacity="0.4"/><rect x="252" y="292" width="14" height="40" rx="2" fill="#2A3544" opacity="0.9"/><line x1="259" y1="280" x2="259" y2="344" stroke="#2A3544" stroke-width="1.5" opacity="0.4"/><rect x="276" y="238" width="14" height="26" rx="2" fill="#00FFFF" opacity="0.55"/><line x1="283" y1="226" x2="283" y2="276" stroke="#00FFFF" stroke-width="1.5" opacity="0.4"/><rect x="300" y="276" width="14" height="80" rx="2" fill="#2A3544" opacity="0.9"/><line x1="307" y1="264" x2="307" y2="368" stroke="#2A3544" stroke-width="1.5" opacity="0.4"/><rect x="324" y="249" width="14" height="69" rx="2" fill="#2A3544" opacity="0.9"/><line x1="331" y1="237" x2="331" y2="330" stroke="#2A3544" stroke-width="1.5" opacity="0.4"/><rect x="348" y="219" width="14" height="50" rx="2" fill="#00FFFF" opacity="0.55"/><line x1="355" y1="207" x2="355" y2="281" stroke="#00FFFF" stroke-width="1.5" opacity="0.4"/><rect x="372" y="263" width="14" height="49" rx="2" fill="#2A3544" opacity="0.9"/><line x1="379" y1="251" x2="379" y2="324" stroke="#2A3544" stroke-width="1.5" opacity="0.4"/><rect x="396" y="242" width="14" height="77" rx="2" fill="#00FFFF" opacity="0.55"/><line x1="403" y1="230" x2="403" y2="331" stroke="#00FFFF" stroke-width="1.5" opacity="0.4"/><rect x="420" y="257" width="14" height="48" rx="2" fill="#00FFFF" opacity="0.55"/><line x1="427" y1="245" x2="427" y2="317" stroke="#00FFFF" stroke-width="1.5" opacity="0.4"/><rect x="444" y="237" width="14" height="35" rx="2" fill="#00FFFF" opacity="0.55"/><line x1="451" y1="225" x2="451" y2="284" stroke="#00FFFF" stroke-width="1.5" opacity="0.4"/><rect x="468" y="229" width="14" height="58" rx="2" fill="#2A3544" opacity="0.9"/><line x1="475" y1="217" x2="475" y2="299" stroke="#2A3544" stroke-width="1.5" opacity="0.4"/><rect x="492" y="268" width="14" height="72" rx="2" fill="#00FFFF" opacity="0.55"/><line x1="499" y1="256" x2="499" y2="352" stroke="#00FFFF" stroke-width="1.5" opacity="0.4"/><rect x="516" y="249" width="14" height="20" rx="2" fill="#00FFFF" opacity="0.55"/><line x1="523" y1="237" x2="523" y2="281" stroke="#00FFFF" stroke-width="1.5" opacity="0.4"/><rect x="540" y="279" width="14" height="29" rx="2" fill="#00FFFF" opacity="0.55"/><line x1="547" y1="267" x2="547" y2="320" stroke="#00FFFF" stroke-width="1.5" opacity="0.4"/><rect x="564" y="298" width="14" height="35" rx="2" fill="#00FFFF" opacity="0.55"/><line x1="571" y1="286" x2="571" y2="345" stroke="#00FFFF" stroke-width="1.5" opacity="0.4"/><rect x="588" y="286" width="14" height="54" rx="2" fill="#2A3544" opacity="0.9"/><line x1="595" y1="274" x2="595" y2="352" stroke="#2A3544" stroke-width="1.5" opacity="0.4"/><rect x="612" y="300" width="14" height="40" rx="2" fill="#00FFFF" opacity="0.55"/><line x1="619" y1="288" x2="619" y2="352" stroke="#00FFFF" stroke-width="1.5" opacity="0.4"/><rect x="636" y="233" width="14" height="26" rx="2" fill="#00FFFF" opacity="0.55"/><line x1="643" y1="221" x2="643" y2="271" stroke="#00FFFF" stroke-width="1.5" opacity="0.4"/><rect x="660" y="266" width="14" height="63" rx="2" fill="#00FFFF" opacity="0.55"/><line x1="667" y1="254" x2="667" y2="341" stroke="#00FFFF" stroke-width="1.5" opacity="0.4"/><rect x="684" y="255" width="14" height="53" rx="2" fill="#00FFFF" opacity="0.55"/><line x1="691" y1="243" x2="691" y2="320" stroke="#00FFFF" stroke-width="1.5" opacity="0.4"/><rect x="708" y="245" width="14" height="29" rx="2" fill="#00FFFF" opacity="0.55"/><line x1="715" y1="233" x2="715" y2="286" stroke="#00FFFF" stroke-width="1.5" opacity="0.4"/>
  
    <rect x="180" y="120" width="160" height="48" fill="rgba(0,255,255,0.08)" stroke="rgba(0,255,255,0.35)" stroke-width="1" rx="4"/>
    <text x="188" y="148" fill="#00FFFF" font-family="JetBrains Mono,monospace" font-size="11" opacity="0.9">SUPPLY</text>
    <rect x="420" y="260" width="160" height="48" fill="rgba(0,255,255,0.06)" stroke="rgba(0,255,255,0.28)" stroke-width="1" rx="4"/>
    <text x="428" y="288" fill="#00FFFF" font-family="JetBrains Mono,monospace" font-size="11" opacity="0.9">DEMAND</text>
    
  <text x="48" y="56" fill="#8A94A6" font-family="JetBrains Mono,monospace" font-size="12">AUDUSD</text>
  <text x="48" y="78" fill="#E8EEF5" font-family="Plus Jakarta Sans,system-ui,sans-serif" font-size="16" font-weight="600">Defined Invalidation</text>
  <rect x="640" y="42" width="100" height="28" rx="6" fill="rgba(0,255,255,0.12)" stroke="rgba(0,255,255,0.35)"/>
  <text x="690" y="61" fill="#00FFFF" font-family="JetBrains Mono,monospace" font-size="12" text-anchor="middle">1:19 RR</text>
</svg>